<mxfile host="app.diagrams.net" modified="2023-06-29T10:19:15.505Z" agent="Mozilla/5.0 (Windows NT 10.0; Win64; x64) AppleWebKit/537.36 (KHTML, like Gecko) Chrome/114.0.0.0 Safari/537.36" etag="mZWFvg4E1DG67m0aD2uY" version="21.5.0" type="device">
  <diagram name="Seite-1" id="YcBQap4kAFDpy3r2Rrme">
    <mxGraphModel dx="819" dy="422" grid="1" gridSize="10" guides="1" tooltips="1" connect="1" arrows="1" fold="1" page="1" pageScale="1" pageWidth="827" pageHeight="1169" math="0" shadow="0">
      <root>
        <mxCell id="0" />
        <mxCell id="1" parent="0" />
        <mxCell id="Cft40uwAEPRBTIfrbhNj-20" value="" style="rounded=1;whiteSpace=wrap;html=1;fillColor=#ffcc99;strokeColor=#36393d;" vertex="1" parent="1">
          <mxGeometry x="436.9" y="210" width="140" height="120" as="geometry" />
        </mxCell>
        <mxCell id="Cft40uwAEPRBTIfrbhNj-1" value="" style="rounded=0;whiteSpace=wrap;html=1;fillColor=#f9f7ed;strokeColor=#36393d;" vertex="1" parent="1">
          <mxGeometry x="90" y="160" width="330" height="240" as="geometry" />
        </mxCell>
        <mxCell id="Cft40uwAEPRBTIfrbhNj-2" value="&lt;b&gt;EKS Cluster&lt;/b&gt;" style="text;html=1;strokeColor=none;fillColor=none;align=center;verticalAlign=middle;whiteSpace=wrap;rounded=0;" vertex="1" parent="1">
          <mxGeometry x="130" y="165" width="80" height="30" as="geometry" />
        </mxCell>
        <mxCell id="Cft40uwAEPRBTIfrbhNj-3" value="" style="sketch=0;points=[[0,0,0],[0.25,0,0],[0.5,0,0],[0.75,0,0],[1,0,0],[0,1,0],[0.25,1,0],[0.5,1,0],[0.75,1,0],[1,1,0],[0,0.25,0],[0,0.5,0],[0,0.75,0],[1,0.25,0],[1,0.5,0],[1,0.75,0]];outlineConnect=0;fontColor=#232F3E;gradientColor=#F78E04;gradientDirection=north;fillColor=#D05C17;strokeColor=#ffffff;dashed=0;verticalLabelPosition=bottom;verticalAlign=top;align=center;html=1;fontSize=12;fontStyle=0;aspect=fixed;shape=mxgraph.aws4.resourceIcon;resIcon=mxgraph.aws4.eks_cloud;" vertex="1" parent="1">
          <mxGeometry x="90" y="160" width="40" height="40" as="geometry" />
        </mxCell>
        <mxCell id="Cft40uwAEPRBTIfrbhNj-4" value="" style="rounded=1;whiteSpace=wrap;html=1;fillColor=#cdeb8b;strokeColor=#36393d;" vertex="1" parent="1">
          <mxGeometry x="195" y="430" width="120" height="90" as="geometry" />
        </mxCell>
        <mxCell id="Cft40uwAEPRBTIfrbhNj-5" value="" style="rounded=1;whiteSpace=wrap;html=1;fillColor=#eeeeee;strokeColor=#36393d;" vertex="1" parent="1">
          <mxGeometry x="280" y="230" width="120" height="160" as="geometry" />
        </mxCell>
        <mxCell id="Cft40uwAEPRBTIfrbhNj-7" value="&lt;b&gt;Frontend&lt;/b&gt;" style="text;html=1;strokeColor=none;fillColor=none;align=center;verticalAlign=middle;whiteSpace=wrap;rounded=0;" vertex="1" parent="1">
          <mxGeometry x="225" y="400" width="60" height="30" as="geometry" />
        </mxCell>
        <mxCell id="Cft40uwAEPRBTIfrbhNj-8" value="" style="rounded=1;whiteSpace=wrap;html=1;fillColor=#eeeeee;strokeColor=#36393d;" vertex="1" parent="1">
          <mxGeometry x="110" y="230" width="120" height="160" as="geometry" />
        </mxCell>
        <mxCell id="Cft40uwAEPRBTIfrbhNj-9" value="&lt;b&gt;Webserver-Pod&lt;/b&gt;" style="text;html=1;strokeColor=none;fillColor=none;align=center;verticalAlign=middle;whiteSpace=wrap;rounded=0;" vertex="1" parent="1">
          <mxGeometry x="122.5" y="200" width="95" height="30" as="geometry" />
        </mxCell>
        <mxCell id="Cft40uwAEPRBTIfrbhNj-10" value="&lt;b&gt;Backend-Pod&lt;/b&gt;" style="text;html=1;strokeColor=none;fillColor=none;align=center;verticalAlign=middle;whiteSpace=wrap;rounded=0;" vertex="1" parent="1">
          <mxGeometry x="298" y="200" width="84" height="30" as="geometry" />
        </mxCell>
        <mxCell id="Cft40uwAEPRBTIfrbhNj-17" style="edgeStyle=orthogonalEdgeStyle;rounded=0;orthogonalLoop=1;jettySize=auto;html=1;entryX=0;entryY=0.5;entryDx=0;entryDy=0;" edge="1" parent="1" source="Cft40uwAEPRBTIfrbhNj-11" target="Cft40uwAEPRBTIfrbhNj-4">
          <mxGeometry relative="1" as="geometry">
            <mxPoint x="170" y="480" as="targetPoint" />
          </mxGeometry>
        </mxCell>
        <mxCell id="Cft40uwAEPRBTIfrbhNj-11" value="NGINX" style="rounded=1;whiteSpace=wrap;html=1;" vertex="1" parent="1">
          <mxGeometry x="115" y="285" width="110" height="50" as="geometry" />
        </mxCell>
        <mxCell id="Cft40uwAEPRBTIfrbhNj-14" style="edgeStyle=orthogonalEdgeStyle;rounded=0;orthogonalLoop=1;jettySize=auto;html=1;exitX=0.5;exitY=0;exitDx=0;exitDy=0;entryX=0.5;entryY=1;entryDx=0;entryDy=0;endArrow=classic;endFill=1;startArrow=classic;startFill=1;" edge="1" parent="1" source="Cft40uwAEPRBTIfrbhNj-12" target="Cft40uwAEPRBTIfrbhNj-13">
          <mxGeometry relative="1" as="geometry" />
        </mxCell>
        <mxCell id="Cft40uwAEPRBTIfrbhNj-18" style="edgeStyle=orthogonalEdgeStyle;rounded=0;orthogonalLoop=1;jettySize=auto;html=1;entryX=1;entryY=0.5;entryDx=0;entryDy=0;startArrow=classic;startFill=1;" edge="1" parent="1" source="Cft40uwAEPRBTIfrbhNj-12" target="Cft40uwAEPRBTIfrbhNj-4">
          <mxGeometry relative="1" as="geometry">
            <mxPoint x="354" y="480" as="targetPoint" />
          </mxGeometry>
        </mxCell>
        <mxCell id="Cft40uwAEPRBTIfrbhNj-12" value="FastAPI" style="rounded=1;whiteSpace=wrap;html=1;" vertex="1" parent="1">
          <mxGeometry x="285" y="320" width="110" height="60" as="geometry" />
        </mxCell>
        <mxCell id="Cft40uwAEPRBTIfrbhNj-23" style="edgeStyle=orthogonalEdgeStyle;rounded=0;orthogonalLoop=1;jettySize=auto;html=1;entryX=0;entryY=0.5;entryDx=0;entryDy=0;entryPerimeter=0;startArrow=classic;startFill=1;" edge="1" parent="1" source="Cft40uwAEPRBTIfrbhNj-13" target="Cft40uwAEPRBTIfrbhNj-22">
          <mxGeometry relative="1" as="geometry" />
        </mxCell>
        <mxCell id="Cft40uwAEPRBTIfrbhNj-13" value="pymongo&lt;br&gt;Wrapper" style="rounded=1;whiteSpace=wrap;html=1;" vertex="1" parent="1">
          <mxGeometry x="285" y="240" width="110" height="60" as="geometry" />
        </mxCell>
        <mxCell id="Cft40uwAEPRBTIfrbhNj-22" value="Atlas MongoDB" style="shape=cylinder3;whiteSpace=wrap;html=1;boundedLbl=1;backgroundOutline=1;size=15;" vertex="1" parent="1">
          <mxGeometry x="448.8" y="230" width="116.2" height="80" as="geometry" />
        </mxCell>
        <mxCell id="Cft40uwAEPRBTIfrbhNj-19" value="Phaser" style="rounded=1;whiteSpace=wrap;html=1;" vertex="1" parent="1">
          <mxGeometry x="205" y="450" width="100" height="50" as="geometry" />
        </mxCell>
        <mxCell id="Cft40uwAEPRBTIfrbhNj-21" value="Database-Service" style="text;html=1;strokeColor=none;fillColor=none;align=center;verticalAlign=middle;whiteSpace=wrap;rounded=0;fontStyle=1" vertex="1" parent="1">
          <mxGeometry x="451.9" y="180" width="110" height="30" as="geometry" />
        </mxCell>
      </root>
    </mxGraphModel>
  </diagram>
</mxfile>
